<!DOCTYPE svg PUBLIC "-//W3C//DTD SVG 1.1//EN" "http://www.w3.org/Graphics/SVG/1.1/DTD/svg11.dtd">
<!-- Uploaded to: SVG Repo, www.svgrepo.com, Transformed by: SVG Repo Mixer Tools -->
<svg width="256px" height="256px" viewBox="-14.88 -14.88 77.76 77.76" xmlns="http://www.w3.org/2000/svg" fill="#000000" stroke="#000000" stroke-width="0.00048000000000000007" transform="rotate(0)">
<g id="SVGRepo_bgCarrier" stroke-width="0">
<path transform="translate(-14.88, -14.88), scale(2.43)" d="M16,30.426256312057376C18.003307102270725,31.29942584975691,20.58806251325127,31.64955479023463,22.48295675031138,30.560959264829936C24.421053058788893,29.44754463305329,24.566928123550007,26.68359149971836,25.781223308001145,24.807053024704526C26.814984737621018,23.20950646312129,28.80455833222144,22.14279262663494,29.142086515123516,20.270122758360507C29.483063129326894,18.378320344367264,27.838136866526185,16.687996797973774,27.588121962369996,14.782039302979713C27.345469915253044,12.932211631949013,28.327384039003793,11.00286819325331,27.696152304026754,9.247223318787295C27.05117994689078,7.453361650822794,25.747026843289895,5.785434369685906,24.04486856649377,4.927188352511136C22.351443334102218,4.073345627721223,20.318241691524424,4.413406559922283,18.42858250263399,4.574417634755614C16.83115140509721,4.71052900314348,15.42711857774578,5.952134605795844,13.831379580499998,5.7974430783904864C11.372667542433097,5.559094625871013,9.14016289516611,2.4454167028517078,6.885859508686483,3.4554618071218126C4.886060583624518,4.351475682582364,5.505452321112854,7.554378700240743,5.10260673740806,9.708387066377322C4.7852896907566995,11.405075824682422,5.175751829041539,13.143240679453065,4.760691005740391,14.818701023243696C4.271157970964973,16.794780529419103,2.0161994800435115,18.413222039754988,2.4536108592445984,20.401488644666983C2.8759960484356526,22.32145325009607,5.143990313837476,23.250301953923902,6.835857153779809,24.25143128125977C8.298040080161815,25.11664961580713,10.215279947694222,24.878666490608158,11.624270880779383,25.82804851441299C13.398328651802888,27.02341359267726,14.038979578377557,29.57151801805016,16,30.426256312057376" fill="#A0E4B0" strokewidth="0"/>
</g>
<g id="SVGRepo_tracerCarrier" stroke-linecap="round" stroke-linejoin="round"/>
<g id="SVGRepo_iconCarrier">
<title>70 Basic icons by Xicons.co</title>
<path d="M41,14H7a2,2,0,0,1,0-4H41A2,2,0,0,1,41,14Z" fill="#121212"/>
<path d="M41,26H7a2,2,0,0,1,0-4H41A2,2,0,0,1,41,26Z" fill="#121212"/>
<path d="M41,38H7a2,2,0,0,1,0-4H41A2,2,0,0,1,41,38Z" fill="#121212"/>
</g>
</svg>