<!DOCTYPE svg PUBLIC "-//W3C//DTD SVG 1.1//EN" "http://www.w3.org/Graphics/SVG/1.1/DTD/svg11.dtd">
<!-- Uploaded to: SVG Repo, www.svgrepo.com, Transformed by: SVG Repo Mixer Tools -->
<svg width="256px" height="256px" viewBox="-14.88 -14.88 77.76 77.76" xmlns="http://www.w3.org/2000/svg" fill="#000000" stroke="#000000" stroke-width="0.00048000000000000007" transform="rotate(0)">
<g id="SVGRepo_bgCarrier" stroke-width="0">
<path transform="translate(-14.88, -14.88), scale(2.43)" d="M16,29.589616735776264C18.236421290108456,29.034442735662925,19.92068006940298,27.392807621100843,21.851717522367835,26.13547206028216C23.675836716563712,24.947753030538344,25.839578082193164,24.187672400600235,27.062234008061154,22.38678378239274C28.319705445812932,20.53461429459467,28.95901293393868,18.22724651937542,28.73287321999669,16C28.514495203439964,13.84919831724537,26.87498227888537,12.216974894992438,25.837108597696698,10.320542703072233C24.77290972656053,8.376008378320535,24.296214108985044,6.026386388137717,22.536679412548743,4.678139144676102C20.704704268907264,3.2743842528246465,18.302898732345497,2.935539916222464,16,2.7828370941181984C13.588539905043067,2.6229356808603543,11.009234478403219,2.5233610711148975,8.94290330819786,3.776749975872441C6.887629615504112,5.023431669400972,6.110479403284616,7.516300519558662,4.8361696192410495,9.55455952448149C3.5146404935088262,11.668345885160807,0.9613114426577627,13.530353605489726,1.300985837976139,15.999999999999996C1.649918433314804,18.536959328940704,5.316539886541895,19.215171173309574,6.478742957330342,21.497100316608936C7.742282923984381,23.97799952097543,6.06888956998451,27.72374629754408,8.190290330598744,29.5268139397649C10.208300520473134,31.242005591709475,13.429573751323083,30.227704840547027,16,29.589616735776264" fill="#A0E4B0" strokewidth="0"/>
</g>
<g id="SVGRepo_tracerCarrier" stroke-linecap="round" stroke-linejoin="round"/>
<g id="SVGRepo_iconCarrier">
<title>70 Basic icons by Xicons.co</title>
<path d="M41,14H7a2,2,0,0,1,0-4H41A2,2,0,0,1,41,14Z" fill="#121212"/>
<path d="M41,26H7a2,2,0,0,1,0-4H41A2,2,0,0,1,41,26Z" fill="#121212"/>
<path d="M41,38H7a2,2,0,0,1,0-4H41A2,2,0,0,1,41,38Z" fill="#121212"/>
</g>
</svg>